<svg xmlns="http://www.w3.org/2000/svg" width="1920" height="1080"><path d="M-200,-174L162,-190L1003,-259Z" fill="#ffe1c4" stroke="#ffe1c4" stroke-width="1.51"/><path d="M268,-184L395,-179L1003,-259Z" fill="#ffd4af" stroke="#ffd4af" stroke-width="1.51"/><path d="M162,-190L268,-184L1003,-259Z" fill="#ffd9b6" stroke="#ffd9b6" stroke-width="1.51"/><path d="M1214,1263L906,1292L1372,1285Z" fill="#c15012" stroke="#c15012" stroke-width="1.51"/><path d="M906,1292L539,1344L1372,1285Z" fill="#c25c21" stroke="#c25c21" stroke-width="1.51"/><path d="M1456,1278L1372,1285L1582,1279Z" fill="#b73f05" stroke="#b73f05" stroke-width="1.51"/><path d="M1003,-259L1482,-242L1757,-246Z" fill="#fda77b" stroke="#fda77b" stroke-width="1.51"/><path d="M1582,1279L1372,1285L1932,1301Z" fill="#ac3803" stroke="#ac3803" stroke-width="1.51"/><path d="M1372,1285L539,1344L1932,1301Z" fill="#bb480a" stroke="#bb480a" stroke-width="1.51"/><path d="M2047,-43L2042,44L2074,206Z" fill="#c98057" stroke="#c98057" stroke-width="1.51"/><path d="M1003,-259L1757,-246L2115,-254Z" fill="#f29e76" stroke="#f29e76" stroke-width="1.51"/><path d="M1757,-246L1879,-180L2115,-254Z" fill="#d79170" stroke="#d79170" stroke-width="1.51"/><path d="M1879,-180L2047,-43L2115,-254Z" fill="#cf8c6b" stroke="#cf8c6b" stroke-width="1.51"/><path d="M2047,-43L2074,206L2115,-254Z" fill="#c88560" stroke="#c88560" stroke-width="1.51"/><path d="M2067,398L1950,504L2122,587Z" fill="#c56025" stroke="#c56025" stroke-width="1.51"/><path d="M2074,206L2067,398L2122,587Z" fill="#c26730" stroke="#c26730" stroke-width="1.51"/><path d="M2115,-254L2074,206L2122,587Z" fill="#c4784a" stroke="#c4784a" stroke-width="1.51"/><path d="M1913,734L2108,836L2126,666Z" fill="#be4a0a" stroke="#be4a0a" stroke-width="1.51"/><path d="M2115,-254L2122,587L2126,666Z" fill="#c06b36" stroke="#c06b36" stroke-width="1.51"/><path d="M1934,1083L2088,1265L2135,1160Z" fill="#983004" stroke="#983004" stroke-width="1.51"/><path d="M1985,1031L1934,1083L2135,1160Z" fill="#a33504" stroke="#a33504" stroke-width="1.51"/><path d="M2093,947L1985,1031L2135,1160Z" fill="#a63503" stroke="#a63503" stroke-width="1.51"/><path d="M2108,836L2093,947L2135,1160Z" fill="#ab3703" stroke="#ab3703" stroke-width="1.51"/><path d="M2126,666L2108,836L2135,1160Z" fill="#b13d05" stroke="#b13d05" stroke-width="1.51"/><path d="M1950,504L1913,734L2122,587Z" fill="#c6581a" stroke="#c6581a" stroke-width="1.51"/><path d="M2122,587L1913,734L2126,666Z" fill="#c05114" stroke="#c05114" stroke-width="1.51"/><path d="M1914,352L2067,398L2074,206Z" fill="#c86f39" stroke="#c86f39" stroke-width="1.51"/><path d="M1974,188L1914,352L2074,206Z" fill="#cb7643" stroke="#cb7643" stroke-width="1.51"/><path d="M2042,44L1974,188L2074,206Z" fill="#c97d4f" stroke="#c97d4f" stroke-width="1.51"/><path d="M1894,828L2093,947L2108,836Z" fill="#b84106" stroke="#b84106" stroke-width="1.51"/><path d="M1934,1083L1932,1301L2088,1265Z" fill="#983104" stroke="#983104" stroke-width="1.51"/><path d="M1913,734L1894,828L2108,836Z" fill="#c04808" stroke="#c04808" stroke-width="1.51"/><path d="M1879,-180L1894,-67L2047,-43Z" fill="#d38c68" stroke="#d38c68" stroke-width="1.51"/><path d="M1894,828L1985,1031L2093,947Z" fill="#b73d03" stroke="#b73d03" stroke-width="1.51"/><path d="M1914,352L1950,504L2067,398Z" fill="#ca682e" stroke="#ca682e" stroke-width="1.51"/><path d="M1894,828L1838,933L1985,1031Z" fill="#be4003" stroke="#be4003" stroke-width="1.51"/><path d="M1900,127L1974,188L2042,44Z" fill="#ce8053" stroke="#ce8053" stroke-width="1.51"/><path d="M1894,-67L2042,44L2047,-43Z" fill="#ce8761" stroke="#ce8761" stroke-width="1.51"/><path d="M1813,1242L1582,1279L1932,1301Z" fill="#a23404" stroke="#a23404" stroke-width="1.51"/><path d="M1894,-67L1900,127L2042,44Z" fill="#d1865c" stroke="#d1865c" stroke-width="1.51"/><path d="M1813,1242L1932,1301L1934,1083Z" fill="#9f3304" stroke="#9f3304" stroke-width="1.51"/><path d="M1816,527L1913,734L1950,504Z" fill="#ce5d1b" stroke="#ce5d1b" stroke-width="1.51"/><path d="M1900,127L1914,352L1974,188Z" fill="#d07946" stroke="#d07946" stroke-width="1.51"/><path d="M1838,933L1934,1083L1985,1031Z" fill="#b33a03" stroke="#b33a03" stroke-width="1.51"/><path d="M1816,527L1763,671L1913,734Z" fill="#d15a16" stroke="#d15a16" stroke-width="1.51"/><path d="M1900,127L1754,293L1914,352Z" fill="#d57942" stroke="#d57942" stroke-width="1.51"/><path d="M1914,352L1834,374L1950,504Z" fill="#d06b2f" stroke="#d06b2f" stroke-width="1.51"/><path d="M1834,374L1816,527L1950,504Z" fill="#d26829" stroke="#d26829" stroke-width="1.51"/><path d="M1894,-67L1732,92L1900,127Z" fill="#d9885b" stroke="#d9885b" stroke-width="1.51"/><path d="M1754,293L1834,374L1914,352Z" fill="#d57338" stroke="#d57338" stroke-width="1.51"/><path d="M1838,933L1730,1112L1934,1083Z" fill="#b63c03" stroke="#b63c03" stroke-width="1.51"/><path d="M1730,1112L1813,1242L1934,1083Z" fill="#aa3703" stroke="#aa3703" stroke-width="1.51"/><path d="M1879,-180L1797,-104L1894,-67Z" fill="#da906a" stroke="#da906a" stroke-width="1.51"/><path d="M1797,-104L1732,92L1894,-67Z" fill="#dd8d63" stroke="#dd8d63" stroke-width="1.51"/><path d="M1732,92L1754,293L1900,127Z" fill="#db834e" stroke="#db834e" stroke-width="1.51"/><path d="M1763,671L1894,828L1913,734Z" fill="#cb4f0a" stroke="#cb4f0a" stroke-width="1.51"/><path d="M1748,868L1838,933L1894,828Z" fill="#c74605" stroke="#c74605" stroke-width="1.51"/><path d="M1763,671L1748,868L1894,828Z" fill="#ce4d08" stroke="#ce4d08" stroke-width="1.51"/><path d="M1688,744L1748,868L1763,671Z" fill="#d55309" stroke="#d55309" stroke-width="1.51"/><path d="M1757,-246L1797,-104L1879,-180Z" fill="#df936f" stroke="#df936f" stroke-width="1.51"/><path d="M1690,-67L1732,92L1797,-104Z" fill="#e39064" stroke="#e39064" stroke-width="1.51"/><path d="M1640,336L1816,527L1834,374Z" fill="#db7030" stroke="#db7030" stroke-width="1.51"/><path d="M1748,868L1730,1112L1838,933Z" fill="#c44002" stroke="#c44002" stroke-width="1.51"/><path d="M1754,293L1640,336L1834,374Z" fill="#dd7739" stroke="#dd7739" stroke-width="1.51"/><path d="M1587,946L1730,1112L1748,868Z" fill="#cb4302" stroke="#cb4302" stroke-width="1.51"/><path d="M1585,587L1763,671L1816,527Z" fill="#dc621b" stroke="#dc621b" stroke-width="1.51"/><path d="M1640,336L1585,587L1816,527Z" fill="#e16d28" stroke="#e16d28" stroke-width="1.51"/><path d="M1757,-246L1690,-67L1797,-104Z" fill="#e4956d" stroke="#e4956d" stroke-width="1.51"/><path d="M1730,1112L1582,1279L1813,1242Z" fill="#ad3803" stroke="#ad3803" stroke-width="1.51"/><path d="M1003,-259L1145,-207L1482,-242Z" fill="#ffb181" stroke="#ffb181" stroke-width="1.51"/><path d="M1732,92L1606,267L1754,293Z" fill="#e38249" stroke="#e38249" stroke-width="1.51"/><path d="M1620,-178L1690,-67L1757,-246Z" fill="#ea9870" stroke="#ea9870" stroke-width="1.51"/><path d="M1579,1122L1582,1279L1730,1112Z" fill="#b83c03" stroke="#b83c03" stroke-width="1.51"/><path d="M1604,106L1606,267L1732,92Z" fill="#e88952" stroke="#e88952" stroke-width="1.51"/><path d="M1688,744L1609,807L1748,868Z" fill="#d75107" stroke="#d75107" stroke-width="1.51"/><path d="M1482,-242L1620,-178L1757,-246Z" fill="#f29c74" stroke="#f29c74" stroke-width="1.51"/><path d="M1585,587L1688,744L1763,671Z" fill="#dd5c14" stroke="#dd5c14" stroke-width="1.51"/><path d="M1587,946L1579,1122L1730,1112Z" fill="#c54102" stroke="#c54102" stroke-width="1.51"/><path d="M1690,-67L1604,106L1732,92Z" fill="#e88f5e" stroke="#e88f5e" stroke-width="1.51"/><path d="M1606,267L1640,336L1754,293Z" fill="#e47d3f" stroke="#e47d3f" stroke-width="1.51"/><path d="M-200,-174L-50,-172L162,-190Z" fill="#ffebd9" stroke="#ffebd9" stroke-width="1.51"/><path d="M1609,807L1587,946L1748,868Z" fill="#d64c04" stroke="#d64c04" stroke-width="1.51"/><path d="M1434,432L1585,587L1640,336Z" fill="#ed742e" stroke="#ed742e" stroke-width="1.51"/><path d="M1531,655L1609,807L1688,744Z" fill="#e1580b" stroke="#e1580b" stroke-width="1.51"/><path d="M1585,587L1531,655L1688,744Z" fill="#e45f15" stroke="#e45f15" stroke-width="1.51"/><path d="M1506,89L1604,106L1690,-67Z" fill="#ef925f" stroke="#ef925f" stroke-width="1.51"/><path d="M1473,-110L1506,89L1690,-67Z" fill="#f49767" stroke="#f49767" stroke-width="1.51"/><path d="M1620,-178L1473,-110L1690,-67Z" fill="#f29a6e" stroke="#f29a6e" stroke-width="1.51"/><path d="M395,-179L680,-173L1003,-259Z" fill="#ffcca2" stroke="#ffcca2" stroke-width="1.51"/><path d="M1434,432L1502,580L1585,587Z" fill="#ee6f24" stroke="#ee6f24" stroke-width="1.51"/><path d="M1516,980L1579,1122L1587,946Z" fill="#d14502" stroke="#d14502" stroke-width="1.51"/><path d="M1604,106L1506,89L1606,267Z" fill="#ef8c53" stroke="#ef8c53" stroke-width="1.51"/><path d="M1531,655L1505,797L1609,807Z" fill="#e5590a" stroke="#e5590a" stroke-width="1.51"/><path d="M1606,267L1434,432L1640,336Z" fill="#ed7c3a" stroke="#ed7c3a" stroke-width="1.51"/><path d="M1516,980L1476,1091L1579,1122Z" fill="#cc4502" stroke="#cc4502" stroke-width="1.51"/><path d="M1506,89L1429,218L1606,267Z" fill="#f28c4f" stroke="#f28c4f" stroke-width="1.51"/><path d="M1505,797L1587,946L1609,807Z" fill="#df5105" stroke="#df5105" stroke-width="1.51"/><path d="M1482,-242L1473,-110L1620,-178Z" fill="#f89f73" stroke="#f89f73" stroke-width="1.51"/><path d="M1579,1122L1456,1278L1582,1279Z" fill="#b93d03" stroke="#b93d03" stroke-width="1.51"/><path d="M1429,218L1434,432L1606,267Z" fill="#f08441" stroke="#f08441" stroke-width="1.51"/><path d="M1505,797L1516,980L1587,946Z" fill="#dd4d03" stroke="#dd4d03" stroke-width="1.51"/><path d="M1476,1091L1456,1278L1579,1122Z" fill="#c14204" stroke="#c14204" stroke-width="1.51"/><path d="M1502,580L1531,655L1585,587Z" fill="#ea671c" stroke="#ea671c" stroke-width="1.51"/><path d="M1335,1186L1456,1278L1476,1091Z" fill="#c24605" stroke="#c24605" stroke-width="1.51"/><path d="M1473,-110L1387,108L1506,89Z" fill="#f69964" stroke="#f69964" stroke-width="1.51"/><path d="M1505,797L1322,796L1516,980Z" fill="#e35708" stroke="#e35708" stroke-width="1.51"/><path d="M1322,796L1317,995L1516,980Z" fill="#e25507" stroke="#e25507" stroke-width="1.51"/><path d="M1336,687L1505,797L1531,655Z" fill="#ea6211" stroke="#ea6211" stroke-width="1.51"/><path d="M1502,580L1336,687L1531,655Z" fill="#ec681a" stroke="#ec681a" stroke-width="1.51"/><path d="M1429,218L1340,395L1434,432Z" fill="#f3843d" stroke="#f3843d" stroke-width="1.51"/><path d="M1308,-66L1387,108L1473,-110Z" fill="#fa9f6b" stroke="#fa9f6b" stroke-width="1.51"/><path d="M1145,-207L1385,-167L1482,-242Z" fill="#ffa97a" stroke="#ffa97a" stroke-width="1.51"/><path d="M1385,-167L1473,-110L1482,-242Z" fill="#faa375" stroke="#faa375" stroke-width="1.51"/><path d="M1434,432L1339,492L1502,580Z" fill="#f1762a" stroke="#f1762a" stroke-width="1.51"/><path d="M1387,108L1429,218L1506,89Z" fill="#f59458" stroke="#f59458" stroke-width="1.51"/><path d="M1317,995L1476,1091L1516,980Z" fill="#d54c05" stroke="#d54c05" stroke-width="1.51"/><path d="M1336,687L1322,796L1505,797Z" fill="#eb610f" stroke="#eb610f" stroke-width="1.51"/><path d="M1387,108L1385,193L1429,218Z" fill="#f69355" stroke="#f69355" stroke-width="1.51"/><path d="M1339,492L1336,687L1502,580Z" fill="#f07022" stroke="#f07022" stroke-width="1.51"/><path d="M680,-173L837,-198L1003,-259Z" fill="#ffc597" stroke="#ffc597" stroke-width="1.51"/><path d="M1335,1186L1372,1285L1456,1278Z" fill="#bd4507" stroke="#bd4507" stroke-width="1.51"/><path d="M1385,-167L1308,-66L1473,-110Z" fill="#fca473" stroke="#fca473" stroke-width="1.51"/><path d="M1317,995L1335,1186L1476,1091Z" fill="#cf4c07" stroke="#cf4c07" stroke-width="1.51"/><path d="M1385,193L1340,395L1429,218Z" fill="#f58c48" stroke="#f58c48" stroke-width="1.51"/><path d="M299,1295L-115,1318L539,1344Z" fill="#c78058" stroke="#c78058" stroke-width="1.51"/><path d="M1340,395L1339,492L1434,432Z" fill="#f47e33" stroke="#f47e33" stroke-width="1.51"/><path d="M1237,359L1340,395L1385,193Z" fill="#f68b44" stroke="#f68b44" stroke-width="1.51"/><path d="M1223,228L1237,359L1385,193Z" fill="#f9924c" stroke="#f9924c" stroke-width="1.51"/><path d="M1057,1239L906,1292L1214,1263Z" fill="#c55719" stroke="#c55719" stroke-width="1.51"/><path d="M1222,984L1317,995L1322,796Z" fill="#e65a0a" stroke="#e65a0a" stroke-width="1.51"/><path d="M1317,995L1206,1117L1335,1186Z" fill="#d15009" stroke="#d15009" stroke-width="1.51"/><path d="M1206,584L1336,687L1339,492Z" fill="#f47524" stroke="#f47524" stroke-width="1.51"/><path d="M1145,-207L1225,-108L1385,-167Z" fill="#ffac7a" stroke="#ffac7a" stroke-width="1.51"/><path d="M1308,-66L1175,119L1387,108Z" fill="#fca166" stroke="#fca166" stroke-width="1.51"/><path d="M1223,228L1385,193L1387,108Z" fill="#f89656" stroke="#f89656" stroke-width="1.51"/><path d="M1175,119L1223,228L1387,108Z" fill="#fb9c5b" stroke="#fb9c5b" stroke-width="1.51"/><path d="M1225,-108L1308,-66L1385,-167Z" fill="#fea875" stroke="#fea875" stroke-width="1.51"/><path d="M1335,1186L1214,1263L1372,1285Z" fill="#c14a09" stroke="#c14a09" stroke-width="1.51"/><path d="M1222,984L1206,1117L1317,995Z" fill="#db560b" stroke="#db560b" stroke-width="1.51"/><path d="M1135,810L1222,984L1322,796Z" fill="#eb6211" stroke="#eb6211" stroke-width="1.51"/><path d="M1182,642L1322,796L1336,687Z" fill="#f16c17" stroke="#f16c17" stroke-width="1.51"/><path d="M1206,584L1182,642L1336,687Z" fill="#f57421" stroke="#f57421" stroke-width="1.51"/><path d="M1237,359L1206,584L1339,492Z" fill="#f88131" stroke="#f88131" stroke-width="1.51"/><path d="M1237,359L1339,492L1340,395Z" fill="#f68338" stroke="#f68338" stroke-width="1.51"/><path d="M1225,-108L1175,119L1308,-66Z" fill="#ffa76f" stroke="#ffa76f" stroke-width="1.51"/><path d="M1206,1117L1214,1263L1335,1186Z" fill="#c84f0a" stroke="#c84f0a" stroke-width="1.51"/><path d="M1182,642L1135,810L1322,796Z" fill="#f26c17" stroke="#f26c17" stroke-width="1.51"/><path d="M989,-88L1020,120L1175,119Z" fill="#ffad72" stroke="#ffad72" stroke-width="1.51"/><path d="M1077,405L1028,509L1206,584Z" fill="#fb8838" stroke="#fb8838" stroke-width="1.51"/><path d="M1206,1117L1065,1149L1214,1263Z" fill="#cb5512" stroke="#cb5512" stroke-width="1.51"/><path d="M1065,1149L1057,1239L1214,1263Z" fill="#c85616" stroke="#c85616" stroke-width="1.51"/><path d="M1076,942L1206,1117L1222,984Z" fill="#df5c12" stroke="#df5c12" stroke-width="1.51"/><path d="M1135,810L1076,942L1222,984Z" fill="#ea6316" stroke="#ea6316" stroke-width="1.51"/><path d="M989,-88L1175,119L1225,-108Z" fill="#ffad76" stroke="#ffad76" stroke-width="1.51"/><path d="M1077,405L1206,584L1237,359Z" fill="#fa883a" stroke="#fa883a" stroke-width="1.51"/><path d="M1223,228L1087,265L1237,359Z" fill="#fb954e" stroke="#fb954e" stroke-width="1.51"/><path d="M1087,265L1077,405L1237,359Z" fill="#fb9449" stroke="#fb9449" stroke-width="1.51"/><path d="M1056,728L1135,810L1182,642Z" fill="#f57420" stroke="#f57420" stroke-width="1.51"/><path d="M1076,942L1065,1149L1206,1117Z" fill="#d95d16" stroke="#d95d16" stroke-width="1.51"/><path d="M1175,119L1087,265L1223,228Z" fill="#fc9d5a" stroke="#fc9d5a" stroke-width="1.51"/><path d="M1145,-207L989,-88L1225,-108Z" fill="#ffb380" stroke="#ffb380" stroke-width="1.51"/><path d="M395,-179L598,-162L680,-173Z" fill="#ffd3ac" stroke="#ffd3ac" stroke-width="1.51"/><path d="M1028,509L1182,642L1206,584Z" fill="#f97f2d" stroke="#f97f2d" stroke-width="1.51"/><path d="M1020,120L1087,265L1175,119Z" fill="#fea462" stroke="#fea462" stroke-width="1.51"/><path d="M1028,509L1056,728L1182,642Z" fill="#f87e2c" stroke="#f87e2c" stroke-width="1.51"/><path d="M989,-88L938,-19L1020,120Z" fill="#ffb47b" stroke="#ffb47b" stroke-width="1.51"/><path d="M1001,852L1076,942L1135,810Z" fill="#ee6c1d" stroke="#ee6c1d" stroke-width="1.51"/><path d="M1003,-259L989,-88L1145,-207Z" fill="#ffb987" stroke="#ffb987" stroke-width="1.51"/><path d="M934,974L1065,1149L1076,942Z" fill="#e2641d" stroke="#e2641d" stroke-width="1.51"/><path d="M1056,728L1001,852L1135,810Z" fill="#f27120" stroke="#f27120" stroke-width="1.51"/><path d="M699,1269L539,1344L906,1292Z" fill="#c46a33" stroke="#c46a33" stroke-width="1.51"/><path d="M1028,509L855,545L1056,728Z" fill="#fb8836" stroke="#fb8836" stroke-width="1.51"/><path d="M855,545L856,729L1056,728Z" fill="#fa8434" stroke="#fa8434" stroke-width="1.51"/><path d="M934,974L939,1176L1065,1149Z" fill="#d86420" stroke="#d86420" stroke-width="1.51"/><path d="M1020,120L929,236L1087,265Z" fill="#fea562" stroke="#fea562" stroke-width="1.51"/><path d="M914,367L1077,405L1087,265Z" fill="#fd994f" stroke="#fd994f" stroke-width="1.51"/><path d="M929,236L914,367L1087,265Z" fill="#fea059" stroke="#fea059" stroke-width="1.51"/><path d="M939,1176L1057,1239L1065,1149Z" fill="#cd5d1c" stroke="#cd5d1c" stroke-width="1.51"/><path d="M914,367L1028,509L1077,405Z" fill="#fd9446" stroke="#fd9446" stroke-width="1.51"/><path d="M1001,852L934,974L1076,942Z" fill="#ec6b20" stroke="#ec6b20" stroke-width="1.51"/><path d="M931,853L1001,852L1056,728Z" fill="#f37425" stroke="#f37425" stroke-width="1.51"/><path d="M856,729L931,853L1056,728Z" fill="#f67a2a" stroke="#f67a2a" stroke-width="1.51"/><path d="M939,1176L906,1292L1057,1239Z" fill="#c95e1f" stroke="#c95e1f" stroke-width="1.51"/><path d="M931,853L934,974L1001,852Z" fill="#ef7125" stroke="#ef7125" stroke-width="1.51"/><path d="M837,-198L989,-88L1003,-259Z" fill="#ffbe8d" stroke="#ffbe8d" stroke-width="1.51"/><path d="M938,-19L903,103L1020,120Z" fill="#ffb277" stroke="#ffb277" stroke-width="1.51"/><path d="M903,103L929,236L1020,120Z" fill="#ffad6d" stroke="#ffad6d" stroke-width="1.51"/><path d="M914,367L855,545L1028,509Z" fill="#fd9447" stroke="#fd9447" stroke-width="1.51"/><path d="M837,-198L938,-19L989,-88Z" fill="#ffbd89" stroke="#ffbd89" stroke-width="1.51"/><path d="M775,499L855,545L914,367Z" fill="#fe994d" stroke="#fe994d" stroke-width="1.51"/><path d="M785,365L775,499L914,367Z" fill="#fe9f56" stroke="#fe9f56" stroke-width="1.51"/><path d="M785,251L914,367L929,236Z" fill="#fea661" stroke="#fea661" stroke-width="1.51"/><path d="M903,103L785,251L929,236Z" fill="#ffae6d" stroke="#ffae6d" stroke-width="1.51"/><path d="M764,850L760,968L931,853Z" fill="#f07931" stroke="#f07931" stroke-width="1.51"/><path d="M760,968L756,1176L934,974Z" fill="#e1702d" stroke="#e1702d" stroke-width="1.51"/><path d="M931,853L760,968L934,974Z" fill="#ed732a" stroke="#ed732a" stroke-width="1.51"/><path d="M837,-198L766,-88L938,-19Z" fill="#ffc18f" stroke="#ffc18f" stroke-width="1.51"/><path d="M752,58L903,103L938,-19Z" fill="#ffb97f" stroke="#ffb97f" stroke-width="1.51"/><path d="M934,974L756,1176L939,1176Z" fill="#d86928" stroke="#d86928" stroke-width="1.51"/><path d="M756,1176L906,1292L939,1176Z" fill="#cc6428" stroke="#cc6428" stroke-width="1.51"/><path d="M766,-88L752,58L938,-19Z" fill="#ffbe8a" stroke="#ffbe8a" stroke-width="1.51"/><path d="M785,251L785,365L914,367Z" fill="#fea65f" stroke="#fea65f" stroke-width="1.51"/><path d="M856,729L764,850L931,853Z" fill="#f57d31" stroke="#f57d31" stroke-width="1.51"/><path d="M855,545L753,684L856,729Z" fill="#fb8b3d" stroke="#fb8b3d" stroke-width="1.51"/><path d="M752,58L785,251L903,103Z" fill="#ffb679" stroke="#ffb679" stroke-width="1.51"/><path d="M756,1176L699,1269L906,1292Z" fill="#c9682e" stroke="#c9682e" stroke-width="1.51"/><path d="M775,499L753,684L855,545Z" fill="#fd9346" stroke="#fd9346" stroke-width="1.51"/><path d="M753,684L764,850L856,729Z" fill="#f88538" stroke="#f88538" stroke-width="1.51"/><path d="M752,58L638,132L785,251Z" fill="#feba7f" stroke="#feba7f" stroke-width="1.51"/><path d="M680,-173L766,-88L837,-198Z" fill="#ffc79a" stroke="#ffc79a" stroke-width="1.51"/><path d="M96,1274L-115,1318L299,1295Z" fill="#cb8763" stroke="#cb8763" stroke-width="1.51"/><path d="M605,1090L756,1176L760,968Z" fill="#dd7436" stroke="#dd7436" stroke-width="1.51"/><path d="M753,684L555,848L764,850Z" fill="#f6883e" stroke="#f6883e" stroke-width="1.51"/><path d="M575,531L753,684L775,499Z" fill="#fd994e" stroke="#fd994e" stroke-width="1.51"/><path d="M638,132L638,252L785,251Z" fill="#feb779" stroke="#feb779" stroke-width="1.51"/><path d="M638,252L534,335L785,365Z" fill="#fdb06e" stroke="#fdb06e" stroke-width="1.51"/><path d="M575,531L775,499L785,365Z" fill="#fea159" stroke="#fea159" stroke-width="1.51"/><path d="M534,335L575,531L785,365Z" fill="#feaa65" stroke="#feaa65" stroke-width="1.51"/><path d="M785,251L638,252L785,365Z" fill="#feae6b" stroke="#feae6b" stroke-width="1.51"/><path d="M584,982L760,968L764,850Z" fill="#ee7c38" stroke="#ee7c38" stroke-width="1.51"/><path d="M554,-108L752,58L766,-88Z" fill="#ffc696" stroke="#ffc696" stroke-width="1.51"/><path d="M575,531L535,674L753,684Z" fill="#fc9850" stroke="#fc9850" stroke-width="1.51"/><path d="M535,674L555,848L753,684Z" fill="#f99048" stroke="#f99048" stroke-width="1.51"/><path d="M584,982L605,1090L760,968Z" fill="#e67b3b" stroke="#e67b3b" stroke-width="1.51"/><path d="M555,848L584,982L764,850Z" fill="#f18340" stroke="#f18340" stroke-width="1.51"/><path d="M680,-173L554,-108L766,-88Z" fill="#ffcb9f" stroke="#ffcb9f" stroke-width="1.51"/><path d="M554,-108L638,132L752,58Z" fill="#ffc592" stroke="#ffc592" stroke-width="1.51"/><path d="M605,1090L699,1269L756,1176Z" fill="#d07036" stroke="#d07036" stroke-width="1.51"/><path d="M598,-162L554,-108L680,-173Z" fill="#ffcfa6" stroke="#ffcfa6" stroke-width="1.51"/><path d="M605,1090L477,1293L699,1269Z" fill="#ce743e" stroke="#ce743e" stroke-width="1.51"/><path d="M477,1293L539,1344L699,1269Z" fill="#c5713e" stroke="#c5713e" stroke-width="1.51"/><path d="M402,91L400,293L534,335Z" fill="#fec28b" stroke="#fec28b" stroke-width="1.51"/><path d="M405,-37L402,91L554,-108Z" fill="#ffd2a9" stroke="#ffd2a9" stroke-width="1.51"/><path d="M402,91L534,335L638,252Z" fill="#febf86" stroke="#febf86" stroke-width="1.51"/><path d="M402,91L638,252L638,132Z" fill="#fec28b" stroke="#fec28b" stroke-width="1.51"/><path d="M554,-108L402,91L638,132Z" fill="#ffcb9c" stroke="#ffcb9c" stroke-width="1.51"/><path d="M534,335L428,359L575,531Z" fill="#ffb170" stroke="#ffb170" stroke-width="1.51"/><path d="M428,359L428,545L575,531Z" fill="#ffad6b" stroke="#ffad6b" stroke-width="1.51"/><path d="M555,848L490,865L584,982Z" fill="#f28848" stroke="#f28848" stroke-width="1.51"/><path d="M409,1090L477,1293L605,1090Z" fill="#d57c47" stroke="#d57c47" stroke-width="1.51"/><path d="M465,1034L409,1090L605,1090Z" fill="#e08149" stroke="#e08149" stroke-width="1.51"/><path d="M584,982L465,1034L605,1090Z" fill="#e47f44" stroke="#e47f44" stroke-width="1.51"/><path d="M535,674L490,865L555,848Z" fill="#f7904d" stroke="#f7904d" stroke-width="1.51"/><path d="M395,-179L554,-108L598,-162Z" fill="#ffd4ae" stroke="#ffd4ae" stroke-width="1.51"/><path d="M428,545L535,674L575,531Z" fill="#fea35e" stroke="#fea35e" stroke-width="1.51"/><path d="M490,865L465,1034L584,982Z" fill="#ee8649" stroke="#ee8649" stroke-width="1.51"/><path d="M420,668L490,865L535,674Z" fill="#fb9854" stroke="#fb9854" stroke-width="1.51"/><path d="M477,1293L299,1295L539,1344Z" fill="#c5784a" stroke="#c5784a" stroke-width="1.51"/><path d="M428,545L420,668L535,674Z" fill="#fda25f" stroke="#fda25f" stroke-width="1.51"/><path d="M395,-179L405,-37L554,-108Z" fill="#ffd7b1" stroke="#ffd7b1" stroke-width="1.51"/><path d="M400,293L428,359L534,335Z" fill="#feba7f" stroke="#feba7f" stroke-width="1.51"/><path d="M409,1090L299,1295L477,1293Z" fill="#ce7f4f" stroke="#ce7f4f" stroke-width="1.51"/><path d="M420,668L294,880L490,865Z" fill="#f89758" stroke="#f89758" stroke-width="1.51"/><path d="M338,1013L465,1034L490,865Z" fill="#ee8a50" stroke="#ee8a50" stroke-width="1.51"/><path d="M294,880L338,1013L490,865Z" fill="#f29156" stroke="#f29156" stroke-width="1.51"/><path d="M274,688L294,880L420,668Z" fill="#fc9f60" stroke="#fc9f60" stroke-width="1.51"/><path d="M269,230L400,293L402,91Z" fill="#feca97" stroke="#feca97" stroke-width="1.51"/><path d="M280,1104L299,1295L409,1090Z" fill="#d58555" stroke="#d58555" stroke-width="1.51"/><path d="M428,359L235,359L428,545Z" fill="#ffb87c" stroke="#ffb87c" stroke-width="1.51"/><path d="M338,1013L409,1090L465,1034Z" fill="#e48751" stroke="#e48751" stroke-width="1.51"/><path d="M284,110L269,230L402,91Z" fill="#fdd0a3" stroke="#fdd0a3" stroke-width="1.51"/><path d="M395,-179L292,-81L405,-37Z" fill="#fedbb9" stroke="#fedbb9" stroke-width="1.51"/><path d="M243,585L274,688L420,668Z" fill="#fea86a" stroke="#fea86a" stroke-width="1.51"/><path d="M400,293L235,359L428,359Z" fill="#febf86" stroke="#febf86" stroke-width="1.51"/><path d="M235,359L243,585L428,545Z" fill="#ffb478" stroke="#ffb478" stroke-width="1.51"/><path d="M243,585L420,668L428,545Z" fill="#ffaa6a" stroke="#ffaa6a" stroke-width="1.51"/><path d="M284,110L402,91L405,-37Z" fill="#fed4a9" stroke="#fed4a9" stroke-width="1.51"/><path d="M292,-81L284,110L405,-37Z" fill="#fed8b2" stroke="#fed8b2" stroke-width="1.51"/><path d="M338,1013L280,1104L409,1090Z" fill="#e28956" stroke="#e28956" stroke-width="1.51"/><path d="M235,359L166,505L243,585Z" fill="#ffb980" stroke="#ffb980" stroke-width="1.51"/><path d="M268,-184L292,-81L395,-179Z" fill="#ffdfc0" stroke="#ffdfc0" stroke-width="1.51"/><path d="M269,230L235,359L400,293Z" fill="#fec490" stroke="#fec490" stroke-width="1.51"/><path d="M130,-21L284,110L292,-81Z" fill="#fedbb8" stroke="#fedbb8" stroke-width="1.51"/><path d="M274,688L190,848L294,880Z" fill="#fa9e64" stroke="#fa9e64" stroke-width="1.51"/><path d="M280,1104L189,1156L299,1295Z" fill="#d48659" stroke="#d48659" stroke-width="1.51"/><path d="M294,880L82,976L338,1013Z" fill="#f2935f" stroke="#f2935f" stroke-width="1.51"/><path d="M82,976L280,1104L338,1013Z" fill="#e88f5e" stroke="#e88f5e" stroke-width="1.51"/><path d="M82,976L189,1156L280,1104Z" fill="#e28e61" stroke="#e28e61" stroke-width="1.51"/><path d="M130,-21L146,104L284,110Z" fill="#fedab5" stroke="#fedab5" stroke-width="1.51"/><path d="M146,104L269,230L284,110Z" fill="#fed3a9" stroke="#fed3a9" stroke-width="1.51"/><path d="M268,-184L162,-190L292,-81Z" fill="#ffe2c5" stroke="#ffe2c5" stroke-width="1.51"/><path d="M190,848L82,976L294,880Z" fill="#f69965" stroke="#f69965" stroke-width="1.51"/><path d="M189,1156L96,1274L299,1295Z" fill="#cf865d" stroke="#cf865d" stroke-width="1.51"/><path d="M162,-190L130,-21L292,-81Z" fill="#fee1c5" stroke="#fee1c5" stroke-width="1.51"/><path d="M97,691L190,848L274,688Z" fill="#fea56b" stroke="#fea56b" stroke-width="1.51"/><path d="M92,287L235,359L269,230Z" fill="#ffc898" stroke="#ffc898" stroke-width="1.51"/><path d="M243,585L97,691L274,688Z" fill="#ffab71" stroke="#ffab71" stroke-width="1.51"/><path d="M109,416L166,505L235,359Z" fill="#ffbf8a" stroke="#ffbf8a" stroke-width="1.51"/><path d="M146,104L92,287L269,230Z" fill="#ffd0a5" stroke="#ffd0a5" stroke-width="1.51"/><path d="M166,505L97,691L243,585Z" fill="#ffb179" stroke="#ffb179" stroke-width="1.51"/><path d="M92,287L109,416L235,359Z" fill="#ffc593" stroke="#ffc593" stroke-width="1.51"/><path d="M21,516L97,691L166,505Z" fill="#ffb680" stroke="#ffb680" stroke-width="1.51"/><path d="M25,1121L96,1274L189,1156Z" fill="#d68c64" stroke="#d68c64" stroke-width="1.51"/><path d="M82,976L25,1121L189,1156Z" fill="#e39166" stroke="#e39166" stroke-width="1.51"/><path d="M97,691L21,798L190,848Z" fill="#fda570" stroke="#fda570" stroke-width="1.51"/><path d="M21,798L82,976L190,848Z" fill="#f89e6c" stroke="#f89e6c" stroke-width="1.51"/><path d="M-50,-172L-65,-111L130,-21Z" fill="#fee8d2" stroke="#fee8d2" stroke-width="1.51"/><path d="M-26,255L92,287L146,104Z" fill="#ffd3ab" stroke="#ffd3ab" stroke-width="1.51"/><path d="M-16,85L-26,255L146,104Z" fill="#fedab6" stroke="#fedab6" stroke-width="1.51"/><path d="M-50,-172L130,-21L162,-190Z" fill="#fee7d0" stroke="#fee7d0" stroke-width="1.51"/><path d="M109,416L21,516L166,505Z" fill="#ffbd89" stroke="#ffbd89" stroke-width="1.51"/><path d="M130,-21L-16,85L146,104Z" fill="#fedebd" stroke="#fedebd" stroke-width="1.51"/><path d="M7,1015L25,1121L82,976Z" fill="#ea956b" stroke="#ea956b" stroke-width="1.51"/><path d="M21,516L16,684L97,691Z" fill="#ffb37e" stroke="#ffb37e" stroke-width="1.51"/><path d="M-64,1261L-115,1318L96,1274Z" fill="#cd8a69" stroke="#cd8a69" stroke-width="1.51"/><path d="M92,287L1,352L109,416Z" fill="#ffc89a" stroke="#ffc89a" stroke-width="1.51"/><path d="M-65,-111L-16,85L130,-21Z" fill="#fee3c9" stroke="#fee3c9" stroke-width="1.51"/><path d="M25,1121L-64,1261L96,1274Z" fill="#d38c69" stroke="#d38c69" stroke-width="1.51"/><path d="M16,684L21,798L97,691Z" fill="#ffab76" stroke="#ffab76" stroke-width="1.51"/><path d="M1,352L21,516L109,416Z" fill="#ffc393" stroke="#ffc393" stroke-width="1.51"/><path d="M21,798L7,1015L82,976Z" fill="#f69c6e" stroke="#f69c6e" stroke-width="1.51"/><path d="M-26,255L1,352L92,287Z" fill="#ffcea3" stroke="#ffcea3" stroke-width="1.51"/><path d="M-134,540L-189,644L16,684Z" fill="#ffb786" stroke="#ffb786" stroke-width="1.51"/><path d="M1,352L-160,409L21,516Z" fill="#ffc597" stroke="#ffc597" stroke-width="1.51"/><path d="M-160,409L-134,540L21,516Z" fill="#ffc192" stroke="#ffc192" stroke-width="1.51"/><path d="M-134,540L16,684L21,516Z" fill="#ffb986" stroke="#ffb986" stroke-width="1.51"/><path d="M-165,1010L7,1015L21,798Z" fill="#f69d71" stroke="#f69d71" stroke-width="1.51"/><path d="M-213,835L-165,1010L21,798Z" fill="#faa377" stroke="#faa377" stroke-width="1.51"/><path d="M16,684L-189,644L21,798Z" fill="#ffaf7c" stroke="#ffaf7c" stroke-width="1.51"/><path d="M-189,644L-213,835L21,798Z" fill="#ffac7c" stroke="#ffac7c" stroke-width="1.51"/><path d="M7,1015L-127,1127L25,1121Z" fill="#e3956d" stroke="#e3956d" stroke-width="1.51"/><path d="M-127,1127L-64,1261L25,1121Z" fill="#d9906c" stroke="#d9906c" stroke-width="1.51"/><path d="M-65,-111L-170,-84L-16,85Z" fill="#ffe7d0" stroke="#ffe7d0" stroke-width="1.51"/><path d="M-170,-84L-206,66L-16,85Z" fill="#ffe5cc" stroke="#ffe5cc" stroke-width="1.51"/><path d="M-206,66L-26,255L-16,85Z" fill="#ffdebe" stroke="#ffdebe" stroke-width="1.51"/><path d="M-165,1010L-127,1127L7,1015Z" fill="#e99871" stroke="#e99871" stroke-width="1.51"/><path d="M-206,66L-208,275L-26,255Z" fill="#ffdab8" stroke="#ffdab8" stroke-width="1.51"/><path d="M-26,255L-160,409L1,352Z" fill="#ffcca2" stroke="#ffcca2" stroke-width="1.51"/><path d="M-208,275L-160,409L-26,255Z" fill="#ffd0a8" stroke="#ffd0a8" stroke-width="1.51"/><path d="M-200,-174L-65,-111L-50,-172Z" fill="#ffecdb" stroke="#ffecdb" stroke-width="1.51"/><path d="M-200,-174L-170,-84L-65,-111Z" fill="#ffecdb" stroke="#ffecdb" stroke-width="1.51"/><path d="M-127,1127L-115,1318L-64,1261Z" fill="#d38e6e" stroke="#d38e6e" stroke-width="1.51"/><path d="M-165,1010L-213,835L-115,1318Z" fill="#ea9974" stroke="#ea9974" stroke-width="1.51"/><path d="M-127,1127L-165,1010L-115,1318Z" fill="#dc9471" stroke="#dc9471" stroke-width="1.51"/><path d="M-160,409L-189,644L-134,540Z" fill="#ffc090" stroke="#ffc090" stroke-width="1.51"/><path d="M-208,275L-189,644L-160,409Z" fill="#ffc79c" stroke="#ffc79c" stroke-width="1.51"/><path d="M-200,-174L-206,66L-170,-84Z" fill="#ffebd8" stroke="#ffebd8" stroke-width="1.51"/><path d="M-208,275L-213,835L-189,644Z" fill="#ffbc8d" stroke="#ffbc8d" stroke-width="1.51"/></svg>